<svg xmlns="http://www.w3.org/2000/svg" width="256" height="256" viewBox="0 0 100 100"><rect width="100" height="100" rx="50" fill="#e2e2e2"></rect><path d="M28.10 52.58L28.10 52.58Q20.02 50.26 16.34 46.88Q12.66 43.49 12.66 38.52L12.66 38.52Q12.66 32.89 17.15 29.21Q21.65 25.53 28.85 25.53L28.85 25.53Q33.76 25.53 37.60 27.43Q41.45 29.32 43.56 32.66Q45.67 36.00 45.67 39.96L45.67 39.96L39.35 39.96Q39.35 35.64 36.60 33.17Q33.86 30.70 28.85 30.70L28.85 30.70Q24.20 30.70 21.60 32.74Q19.00 34.79 19.00 38.42L19.00 38.42Q19.00 41.33 21.47 43.34Q23.94 45.35 29.88 47.02Q35.82 48.69 39.17 50.70Q42.52 52.72 44.14 55.40Q45.76 58.08 45.76 61.71L45.76 61.71Q45.76 67.50 41.25 70.99Q36.73 74.47 29.18 74.47L29.18 74.47Q24.27 74.47 20.02 72.59Q15.76 70.71 13.46 67.44Q11.15 64.17 11.15 60.01L11.15 60.01L17.47 60.01Q17.47 64.33 20.65 66.83Q23.84 69.33 29.18 69.33L29.18 69.33Q34.15 69.33 36.80 67.31Q39.45 65.28 39.45 61.78Q39.45 58.28 37.00 56.36Q34.54 54.45 28.10 52.58ZM82.53 58.70L88.85 58.70Q87.97 66.26 83.27 70.36Q78.58 74.47 70.79 74.47L70.79 74.47Q62.35 74.47 57.26 68.42Q52.18 62.37 52.18 52.22L52.18 52.22L52.18 47.64Q52.18 41.00 54.55 35.97Q56.92 30.93 61.27 28.23Q65.62 25.53 71.35 25.53L71.35 25.53Q78.94 25.53 83.52 29.77Q88.10 34.00 88.85 41.49L88.85 41.49L82.53 41.49Q81.72 35.80 78.99 33.25Q76.25 30.70 71.35 30.70L71.35 30.70Q65.33 30.70 61.91 35.15Q58.49 39.60 58.49 47.81L58.49 47.81L58.49 52.42Q58.49 60.17 61.73 64.75Q64.97 69.33 70.79 69.33L70.79 69.33Q76.02 69.33 78.82 66.96Q81.62 64.59 82.53 58.70L82.53 58.70Z" fill="#ff3636"></path></svg>